<?xml version="1.0" standalone="no"?>
<!DOCTYPE svg PUBLIC "-//W3C//DTD SVG 20010904//EN"
 "http://www.w3.org/TR/2001/REC-SVG-20010904/DTD/svg10.dtd">
<svg version="1.0" xmlns="http://www.w3.org/2000/svg"
 width="563.000000pt" height="566.000000pt" viewBox="0 0 563.000000 566.000000"
 preserveAspectRatio="xMidYMid meet">

<g transform="translate(0.000000,566.000000) scale(0.100000,-0.100000)"
fill="#000000" stroke="none">
<path d="M2545 5444 c-428 -41 -642 -109 -865 -275 -226 -167 -330 -299 -395
-499 -10 -30 -42 -107 -70 -170 -29 -63 -58 -133 -64 -155 -18 -65 -13 -171
16 -319 l26 -139 -22 -141 c-27 -176 -27 -187 5 -365 53 -304 73 -346 221
-457 15 -12 48 -59 71 -105 55 -106 108 -160 252 -259 147 -102 139 -94 194
-170 83 -113 89 -131 83 -240 -5 -101 -36 -205 -74 -253 -91 -116 -374 -289
-723 -442 -264 -116 -361 -165 -451 -225 -107 -71 -238 -202 -270 -270 -46
-95 -86 -408 -105 -813 l-7 -147 2358 0 2358 0 -7 183 c-3 100 -13 387 -21
637 -22 645 -29 770 -48 806 -20 38 -45 51 -139 68 -86 17 -124 33 -185 82
-54 45 -121 77 -212 104 -41 12 -109 42 -151 66 -91 53 -163 69 -370 83 -111
7 -156 14 -192 31 -27 11 -48 23 -48 26 0 3 35 56 77 117 124 178 228 427 273
647 42 207 37 387 -16 549 -35 108 -33 120 40 230 79 116 112 188 131 277 12
57 12 72 0 100 -22 53 -62 67 -202 72 -68 2 -123 5 -123 6 0 0 -5 67 -10 147
-21 329 -112 480 -556 926 -56 55 -121 111 -144 123 -38 19 -192 74 -394 141
-60 20 -168 30 -241 23z m753 -829 c74 -35 246 -150 264 -177 17 -26 138 -322
138 -338 0 -5 -8 -10 -17 -10 -29 0 -173 -51 -173 -61 0 -5 7 -21 16 -35 9
-13 15 -26 13 -27 -30 -22 -113 -70 -141 -82 -86 -35 -196 -4 -289 81 -88 81
-106 88 -244 92 -148 5 -206 -13 -284 -86 -67 -63 -66 -78 2 -51 164 66 241
75 372 40 l70 -18 -90 -7 c-157 -13 -295 -36 -457 -77 -127 -31 -258 -50 -258
-36 0 17 87 265 111 313 37 79 112 171 182 223 43 33 166 110 353 223 55 33
172 57 279 57 86 1 108 -3 153 -24z m178 -959 c24 -38 64 -96 90 -129 28 -36
48 -74 50 -92 2 -16 12 -57 23 -89 12 -33 21 -69 21 -81 0 -39 -116 -125 -169
-125 -26 0 -51 -10 -51 -21 0 -5 34 -9 75 -9 80 0 104 8 184 63 40 27 43 32
38 63 -3 18 -24 74 -46 125 -23 50 -41 95 -41 100 0 11 150 12 240 2 l62 -6
24 -54 c13 -30 32 -80 41 -113 15 -56 15 -62 -7 -152 -52 -217 -51 -206 -33
-297 15 -79 15 -87 -2 -137 -24 -72 -57 -119 -159 -230 -48 -51 -104 -115
-125 -141 -42 -53 -120 -101 -210 -127 -72 -21 -111 -20 -226 5 -105 23 -134
21 -210 -15 l-50 -24 30 -12 c60 -24 318 -60 433 -60 104 0 112 -1 112 -20 0
-14 -21 -29 -87 -60 -171 -81 -197 -96 -250 -144 -40 -36 -65 -72 -101 -144
-46 -93 -49 -96 -99 -117 -55 -22 -93 -51 -93 -71 0 -19 71 -27 136 -15 115
21 184 52 321 143 74 49 137 87 140 85 2 -3 -10 -36 -27 -73 -37 -80 -52 -124
-41 -124 4 0 27 20 51 45 24 25 48 45 52 45 11 0 10 -54 -3 -105 -12 -49 -42
-83 -144 -164 -38 -30 -104 -87 -145 -126 -82 -77 -170 -132 -360 -224 -178
-87 -287 -114 -460 -115 -118 0 -142 2 -192 22 -68 28 -251 155 -297 207 -44
51 -51 73 -51 171 0 80 -2 89 -41 162 -39 72 -41 81 -37 142 6 75 32 136 110
255 45 68 62 84 111 110 l58 30 125 -133 126 -133 32 24 c17 13 58 38 91 56
93 49 125 83 139 144 6 27 6 27 -41 27 -42 0 -71 -5 -132 -21 -10 -3 -30 30
-62 101 -41 88 -46 107 -35 118 11 12 29 7 110 -26 108 -44 115 -41 71 35 -41
74 -116 152 -245 258 -182 148 -213 185 -245 286 -33 103 -30 167 16 320 29
97 32 118 38 306 4 122 11 207 17 213 17 17 272 25 316 11 25 -8 54 -33 94
-82 32 -38 74 -80 94 -94 56 -39 150 -59 280 -59 210 -1 275 38 376 224 51 94
99 144 133 138 8 -2 33 -34 57 -72z m-1526 -511 c14 -34 20 -65 17 -82 -45
-218 -42 -206 -73 -220 -16 -6 -39 -12 -51 -13 -23 0 -23 2 -23 123 0 97 4
130 19 163 20 44 57 84 77 84 6 0 22 -25 34 -55z"/>
<path d="M3019 3203 c-86 -92 -179 -240 -179 -286 0 -58 15 -38 142 190 15 26
39 67 53 91 14 23 25 42 23 42 -2 0 -20 -17 -39 -37z"/>
<path d="M3265 3206 c-17 -12 -12 -15 56 -21 41 -4 86 -5 99 -3 23 4 22 5 -14
21 -47 21 -115 22 -141 3z"/>
<path d="M3530 2958 c-36 -5 -91 -6 -123 -3 -61 6 -146 -12 -196 -42 -72 -44
-161 -107 -161 -115 0 -34 128 -94 182 -86 19 3 16 7 -25 38 -25 19 -47 38
-47 41 0 3 84 9 188 12 132 4 200 10 232 21 44 15 40 16 -120 12 -91 -2 -190
-1 -220 3 l-55 6 52 33 c32 20 73 36 109 42 89 15 245 12 292 -4 45 -16 62 -8
34 16 -21 19 -58 38 -69 37 -4 -1 -37 -6 -73 -11z"/>
<path d="M3646 2845 c-3 -9 0 -15 9 -15 8 0 15 7 15 15 0 8 -4 15 -9 15 -5 0
-11 -7 -15 -15z"/>
<path d="M3560 2763 c-99 -34 -163 -40 -250 -23 -25 4 -46 7 -48 6 -6 -7 43
-58 62 -65 33 -12 181 6 235 29 44 19 111 75 100 83 -2 2 -47 -11 -99 -30z"/>
<path d="M1846 2934 c-20 -19 -20 -38 -2 -54 23 -19 61 -8 64 18 7 44 -32 67
-62 36z"/>
</g>
</svg>
